<svg width="35" height="27" viewBox="0 0 35 27" fill="none" xmlns="http://www.w3.org/2000/svg">
<path fill-rule="evenodd" clip-rule="evenodd" d="M2.72408 9.52558L2.74177 2.62449H10.8778C11.5071 2.62449 12.0173 2.11431 12.0173 1.48498C12.0173 0.855638 11.5071 0.345459 10.8778 0.345459H1.76165C1.73017 0.345459 1.69899 0.346735 1.66816 0.349239C1.65241 0.348546 1.63658 0.348176 1.62067 0.348135C0.998277 0.34654 0.49244 0.849793 0.490844 1.47218L0.470219 9.51981C0.468623 10.1422 0.971875 10.648 1.59426 10.6496C2.21665 10.6512 2.72249 10.148 2.72408 9.52558ZM2.77039 17.5326L2.78793 24.3755H10.7192C11.3485 24.3755 11.8587 24.8857 11.8587 25.515C11.8587 26.1444 11.3485 26.6545 10.7192 26.6545H1.81671C1.78197 26.6545 1.7476 26.653 1.71365 26.6499C1.69398 26.651 1.67417 26.6516 1.65424 26.6516C1.0249 26.6532 0.513419 26.1444 0.511806 25.515L0.491362 17.5384C0.489749 16.9091 0.998619 16.3976 1.62796 16.396C2.25729 16.3944 2.76878 16.9033 2.77039 17.5326ZM32.3175 2.62452L32.3351 9.49807C32.3367 10.1358 32.8551 10.6515 33.4928 10.6499C34.1306 10.6482 34.6462 10.1299 34.6446 9.49215L34.6241 1.50017C34.6225 0.862414 34.1042 0.346736 33.4664 0.34837C33.4528 0.348405 33.4392 0.348677 33.4256 0.349181C33.3951 0.346735 33.3643 0.345488 33.3332 0.345488H24.2171C23.5877 0.345488 23.0776 0.855667 23.0776 1.48501C23.0776 2.11434 23.5877 2.62452 24.2171 2.62452H32.3175ZM34.6502 25.4149C34.6502 26.0442 34.14 26.5544 33.5107 26.5544H24.3946C23.7652 26.5544 23.255 26.0442 23.255 25.4149C23.255 24.7855 23.7652 24.2754 24.3946 24.2754H32.3768L32.3947 17.2897C32.3963 16.6642 32.9046 16.1585 33.5301 16.1601C34.1555 16.1617 34.6612 16.67 34.6596 17.2955L34.6392 25.256C34.6465 25.3079 34.6502 25.361 34.6502 25.4149Z" fill="white"/>
</svg>
