<svg width="81" height="81" viewBox="0 0 81 81" fill="none" xmlns="http://www.w3.org/2000/svg">
<path d="M38.6649 6.31231C36.0862 7.79942 33.1753 12.8461 31.4351 18.9053C30.8022 21.0727 30.0745 24.2209 29.9479 25.3441L29.853 26.1035H40.247C46.5593 26.1035 50.6251 26.0402 50.6251 25.9611C50.6251 25.882 50.4511 24.8221 50.2138 23.6197C48.5685 14.6813 45.3886 7.8627 42.0821 6.16993C41.1171 5.6795 39.6774 5.72696 38.6649 6.31231Z" fill="#0098FF"/>
<path d="M28.7932 7.75178C26.9106 8.41624 23.4459 10.1248 21.6741 11.2955C16.5641 14.6494 12.3243 19.3323 9.74556 24.4739C9.35005 25.2807 9.01782 25.9768 9.01782 26.0242C9.01782 26.0717 12.4508 26.0875 16.6432 26.0717L24.2686 26.0242L24.854 23.0342C25.9139 17.7028 27.3536 13.2256 29.252 9.3971C29.8374 8.22639 30.2645 7.27717 30.217 7.27717C30.1696 7.29299 29.5368 7.49866 28.7932 7.75178Z" fill="#0098FF"/>
<path d="M51.7485 9.38128C53.6312 13.2256 55.0866 17.7186 56.1624 23.0975L56.7319 26.0242L64.3573 26.0717C68.5497 26.0875 71.9827 26.0717 71.9827 26.0242C71.9827 25.7553 70.2899 22.6545 69.4989 21.4364C65.4489 15.2981 59.8011 10.726 52.9034 8.02073C50.4355 7.05569 50.5304 6.94495 51.7485 9.38128Z" fill="#0098FF"/>
<path d="M6.80269 32.3839C6.70776 32.7162 6.48628 33.871 6.29644 34.9626C5.79019 37.8103 5.79019 43.1892 6.29644 46.0369C6.48628 47.1285 6.70776 48.2833 6.80269 48.5998L6.97671 49.2009H15.3773H23.7779L23.683 48.5998C23.414 46.8437 23.2242 41.0376 23.2875 36.6554L23.3824 31.7986H15.1716H6.97671L6.80269 32.3839Z" fill="#0098FF"/>
<path d="M29.5208 31.9251C29.4892 31.9884 29.3626 33.3173 29.2519 34.8835C29.062 37.7312 29.1411 46.0843 29.3942 48.1726L29.505 49.1218L40.6108 49.1693L51.7009 49.2009L51.8274 48.5365C51.9856 47.6505 51.9856 33.349 51.8274 32.463L51.7009 31.7986H40.6583C34.5833 31.7986 29.5683 31.846 29.5208 31.9251Z" fill="#0098FF"/>
<path d="M57.3168 32.3839C57.3801 32.7003 57.5067 34.6621 57.6016 36.7345C57.7598 39.6455 57.7598 41.3541 57.6016 44.265C57.5067 46.3375 57.3801 48.2992 57.3168 48.6156L57.2219 49.2009H65.6225H74.0231L74.1813 48.5998C74.2762 48.2675 74.4977 47.1601 74.6875 46.116C75.1938 43.3474 75.1938 37.7945 74.7034 34.9626C74.5135 33.871 74.292 32.7162 74.1971 32.3839L74.0231 31.7986H65.6225H57.2219L57.3168 32.3839Z" fill="#0098FF"/>
<path d="M9.01782 54.9755C9.01782 55.2444 10.7106 58.3452 11.5016 59.5634C14.1911 63.6134 17.5292 66.9673 21.595 69.6567C23.794 71.1122 27.6542 72.9474 29.9797 73.6276C30.2487 73.7067 30.1221 73.3587 29.252 71.6026C27.3694 67.7741 25.9139 63.2811 24.8381 57.9022L24.2686 54.9755L16.6432 54.928C12.4508 54.9122 9.01782 54.928 9.01782 54.9755Z" fill="#0098FF"/>
<path d="M30.1852 54.9755C29.9637 55.197 31.2768 60.9082 32.1943 63.74C34.0453 69.4511 36.7189 73.7384 39.1078 74.83C40.057 75.2572 41.5758 75.2572 42.4301 74.8142C45.1195 73.4378 48.0146 68.407 49.9289 61.8099C50.4984 59.8324 51.416 55.7824 51.416 55.2128C51.416 54.8964 51.3211 54.8964 40.848 54.8964C35.0262 54.8964 30.2326 54.9281 30.1852 54.9755Z" fill="#0098FF"/>
<path d="M56.7474 55.0229C56.7 55.0862 56.5101 55.988 56.3203 57.0321C55.3394 62.585 53.5834 68.043 51.5109 72.0772C50.5301 74.0073 50.4351 73.944 52.9031 72.979C59.69 70.3212 65.2746 65.844 69.2771 59.8798C70.1789 58.5192 71.9824 55.276 71.9824 54.9913C71.9824 54.8489 56.8265 54.8805 56.7474 55.0229Z" fill="#0098FF"/>
</svg>
